<?xml version="1.0" encoding="UTF-8" standalone="no"?>
<!-- Created with Inkscape (http://www.inkscape.org/) -->

<svg
   width="129.34375"
   height="47.1875"
   viewBox="0 0 129.34375 47.1875"
   version="1.1"
   id="svg1"
   xmlns="http://www.w3.org/2000/svg"
   xmlns:svg="http://www.w3.org/2000/svg">
  <defs
     id="defs1" />
  <g
     id="layer1"
     transform="translate(-11.054688,90.824219)">
    <path
       style="font-weight:900;font-size:64px;font-family:'Inter 28pt';-inkscape-font-specification:'Inter 28pt Heavy';letter-spacing:0px;word-spacing:0px;stroke-width:80;stroke-linecap:round;stroke-linejoin:round;stroke-miterlimit:2.1"
       d="m 11.054688,-44.261719 v -46.5625 h 12.906249 v 35.75 h 19.78125 v 10.8125 z m 29.906249,-35.75 v -10.8125 h 39.6875 v 10.8125 h -13.375 v 35.75 h -12.9375 v -35.75 z m 43.6875,35.75 v -46.5625 h 19.843753 q 5.46875,0 9.46875,1.96875 4.03125,1.96875 6.21875,5.59375 2.21875,3.59375 2.21875,8.59375 0,4.875 -2.28125,8.40625 -2.28125,3.5 -6.4375,5.375 -4.15625,1.875 -9.84375,1.875 H 92.554687 v -10 h 10.500003 q 2.03125,0 3.5,-0.6875 1.46875,-0.6875 2.25,-1.9375 0.78125,-1.28125 0.78125,-3.03125 0,-1.78125 -0.78125,-3.03125 -0.78125,-1.28125 -2.25,-1.96875 -1.46875,-0.6875 -3.5,-0.6875 h -5.500003 v 36.09375 z m 25.625003,0 -10.406253,-21.1875 h 13.343753 l 10.65625,21.1875 z m 23.625,0.625 q -2.6875,0 -4.59375,-1.875 -1.875,-1.90625 -1.875,-4.59375 0,-2.6875 1.875,-4.5625 1.90625,-1.90625 4.59375,-1.90625 2.71875,0 4.59375,1.90625 1.90625,1.875 1.90625,4.5625 0,2.6875 -1.90625,4.59375 -1.875,1.875 -4.59375,1.875 z"
       id="text1"
       aria-label="LTR." />
  </g>
</svg>
